HIERARCHY
ROOT Hips
{
	OFFSET -1.184550 -1.211971 92.605789
	CHANNELS 6 Xposition Yposition Zposition Zrotation Xrotation Yrotation
	JOINT Spine
	{
		OFFSET 0.107134 3.983569 20.828293
		CHANNELS 3 Zrotation Xrotation Yrotation
		JOINT Spine1
		{
			OFFSET 0.052365 -0.528499 10.119110
			CHANNELS 3 Zrotation Xrotation Yrotation
			JOINT Spine2
			{
				OFFSET 0.041914 -0.426314 9.193100
				CHANNELS 3 Zrotation Xrotation Yrotation
				JOINT Neck
				{
					OFFSET 0.274293 -2.659674 20.339844
					CHANNELS 3 Zrotation Xrotation Yrotation
					JOINT Head
					{
						OFFSET 0.058048 -0.582622 9.746796
						CHANNELS 3 Zrotation Xrotation Yrotation
						End Site
						{
							OFFSET 0.000589 0.011348 0.099350
						}
					}
				}
				JOINT LeftShoulder
				{
					OFFSET 4.718655 -4.351627 10.315430
					CHANNELS 3 Zrotation Xrotation Yrotation
					JOINT LeftArm
					{
						OFFSET 9.498988 5.100962 -1.098145
						CHANNELS 3 Zrotation Xrotation Yrotation
						JOINT LeftForeArm
						{
							OFFSET 23.845404 5.963762 -13.075882
							CHANNELS 3 Zrotation Xrotation Yrotation
							JOINT LeftHand
							{
								OFFSET 23.388580 -4.235815 -15.412743
								CHANNELS 3 Zrotation Xrotation Yrotation
								End Site
								{
									OFFSET 0.049503 -0.027075 0.082558
								}
							}
						}
					}
				}
				JOINT RightShoulder
				{
					OFFSET -4.420938 -4.378172 10.435394
					CHANNELS 3 Zrotation Xrotation Yrotation
					JOINT RightArm
					{
						OFFSET -9.496534 5.105543 -1.102051
						CHANNELS 3 Zrotation Xrotation Yrotation
						JOINT RightForeArm
						{
							OFFSET -23.845409 5.963769 -13.075897
							CHANNELS 3 Zrotation Xrotation Yrotation
							JOINT RightHand
							{
								OFFSET -23.388588 -4.235811 -15.412758
								CHANNELS 3 Zrotation Xrotation Yrotation
								End Site
								{
									OFFSET -0.049503 -0.027075 0.082558
								}
							}
						}
					}
				}
			}
		}
	}
	JOINT LeftUpLeg
	{
		OFFSET 8.239366 3.086777 6.172241
		CHANNELS 3 Zrotation Xrotation Yrotation
		JOINT LeftLeg
		{
			OFFSET -0.000001 -3.391731 -44.241604
			CHANNELS 3 Zrotation Xrotation Yrotation
			JOINT LeftFoot
			{
				OFFSET -0.000006 4.391869 -44.310764
				CHANNELS 3 Zrotation Xrotation Yrotation
				JOINT LeftToeBase
				{
					OFFSET -0.000001 -10.427946 -9.064465
					CHANNELS 3 Zrotation Xrotation Yrotation
					End Site
					{
						OFFSET 0.000000 -0.003176 0.099948
					}
				}
			}
		}
	}
	JOINT RightUpLeg
	{
		OFFSET -8.176001 3.084342 6.257103
		CHANNELS 3 Zrotation Xrotation Yrotation
		JOINT RightLeg
		{
			OFFSET -0.000006 -3.391731 -44.241608
			CHANNELS 3 Zrotation Xrotation Yrotation
			JOINT RightFoot
			{
				OFFSET -0.000005 4.391849 -44.310661
				CHANNELS 3 Zrotation Xrotation Yrotation
				JOINT RightToeBase
				{
					OFFSET -0.000001 -10.428270 -9.064080
					CHANNELS 3 Zrotation Xrotation Yrotation
					End Site
					{
						OFFSET 0.000000 -0.003173 0.099948
					}
				}
			}
		}
	}
}
MOTION
Frames: 5
Frame Time: 0.041667
-2.732870 -59.473831 20.620644 0.000000 -0.000000 0.000000 0.000000 -0.000000 -0.000000 -0.000000 -0.000001 -0.000000 0.000000 -0.000006 -0.000000 -0.000000 0.000006 0.000000 0.000000 -0.000000 0.000000 -0.000000 0.000016 -0.000022 0.000003 -0.000014 0.000014 0.000002 0.000010 0.000011 -0.000000 -0.000004 -0.000001 -0.000003 0.000016 0.000034 0.000005 -0.000008 -0.000031 -0.000000 -0.000005 -0.000003 0.000000 0.000000 -0.000002 0.000001 0.000002 -0.000002 -0.000001 -0.000006 0.000002 0.000000 -0.000003 0.000000 0.000000 -0.000003 -0.000000 -0.000000 0.000001 0.000000 0.000000 0.000002 -0.000001 0.000000 -0.000002 0.000000 0.000000 -0.000003 0.000000 
-2.479452 -58.684986 20.421265 -150.373267 -1.128426 4.225884 -0.000001 0.000002 0.000002 -0.000002 -0.000003 -0.000006 0.000003 -0.000003 -0.000001 -0.000007 0.000005 0.000004 -3.221175 6.107242 14.096632 15.533351 7.028055 -28.068360 12.345530 -23.004432 66.553800 -18.362094 -36.213120 30.552601 0.000002 0.000003 0.000006 22.093584 4.728806 31.600526 -25.088632 -36.778916 -82.636171 13.326326 -15.326991 -17.510648 0.000001 0.000002 -0.000000 -0.423620 -1.649566 1.814865 -0.431205 31.455740 -3.489236 0.000006 -0.000009 -0.000007 0.000001 -0.000002 0.000001 0.494084 -21.417013 -13.040601 -0.809613 21.732342 -7.311008 -0.000005 0.000002 0.000000 -0.000002 -0.000000 -0.000005 
-2.186158 -57.824417 20.160118 -146.665909 -1.555670 3.886793 0.000011 0.000003 0.000002 0.000007 -0.000004 -0.000004 0.000006 0.000007 0.000012 -0.000002 -0.000003 -0.000008 -2.467585 5.113329 11.774400 16.781406 7.250983 -27.943919 11.902829 -20.090141 66.312838 -18.516071 -36.293105 30.237688 0.000001 -0.000003 0.000005 22.408804 4.868206 31.970476 -22.977265 -33.400728 -80.891269 13.946247 -16.957053 -18.914438 0.000002 0.000001 -0.000001 -0.227921 1.543307 0.806465 -0.421457 29.140032 -3.511713 -0.000000 0.000000 0.000001 0.000001 -0.000006 0.000003 0.548335 -22.675789 -12.683526 -0.668988 17.735269 -6.238970 0.000000 -0.000003 -0.000000 -0.000004 0.000000 0.000004 
-1.813329 -56.735596 19.874420 -148.145178 -1.321209 4.393811 0.000004 0.000002 0.000002 0.000001 -0.000004 -0.000005 0.000011 0.000006 0.000009 -0.000003 -0.000001 -0.000000 -2.421583 4.484436 12.209627 14.696412 6.657629 -27.525751 12.623348 -20.317803 68.275131 -18.168045 -38.122052 31.977023 0.000000 -0.000002 0.000000 20.635743 4.298632 30.617436 -22.476565 -31.452263 -81.652248 14.992950 -19.120910 -19.994178 -0.000003 0.000002 -0.000000 -0.334307 -1.163836 0.333531 -0.448698 29.736161 -3.711823 -0.000000 -0.000003 0.000002 -0.000002 0.000001 -0.000001 0.371639 -22.213522 -13.460437 -0.732349 16.816916 -6.879623 0.000002 -0.000002 0.000001 -0.000000 0.000002 -0.000000 
-1.358829 -55.388119 19.511543 -151.193737 -0.819149 3.296623 -0.000007 0.000002 0.000002 -0.000003 -0.000002 0.000002 0.000001 -0.000006 -0.000016 -0.000003 0.000005 0.000003 -2.249306 3.560169 12.385671 14.906744 6.783063 -27.610222 12.801923 -20.538261 68.954789 -18.842988 -39.151850 31.136486 -0.000000 -0.000002 0.000002 21.538342 4.440560 30.788471 -24.078203 -32.793961 -83.815020 14.600190 -18.607245 -20.118893 -0.000000 0.000006 0.000006 -0.506673 -3.389005 2.195404 -0.459852 32.493966 -3.669739 -0.000003 -0.000012 -0.000000 -0.000001 0.000001 0.000002 0.523528 -22.244142 -13.466359 -0.789468 20.539596 -7.203606 0.000000 0.000005 -0.000002 -0.000002 -0.000005 -0.000002 
